<svg xmlns="http://www.w3.org/2000/svg" viewBox="0 0 512 512" fill="none" role="img" aria-label="MeedyaDL icon minimal media">
  <defs>
    <linearGradient id="bg" x1="52" y1="36" x2="460" y2="476" gradientUnits="userSpaceOnUse">
      <stop offset="0" stop-color="#2EA3FF"/>
      <stop offset="1" stop-color="#0F78F8"/>
    </linearGradient>
  </defs>

  <rect x="24" y="24" width="464" height="464" rx="106" fill="url(#bg)"/>

  <rect x="136" y="132" width="240" height="56" rx="16" fill="#071B36" fill-opacity="0.92"/>
  <path d="M160 140L182 180" stroke="#93D1FF" stroke-width="10" stroke-linecap="round"/>
  <path d="M204 140L226 180" stroke="#93D1FF" stroke-width="10" stroke-linecap="round"/>
  <path d="M248 140L270 180" stroke="#93D1FF" stroke-width="10" stroke-linecap="round"/>
  <path d="M292 140L314 180" stroke="#93D1FF" stroke-width="10" stroke-linecap="round"/>

  <rect x="146" y="186" width="220" height="176" rx="24" fill="#071B36" fill-opacity="0.9"/>
  <path d="M256 226V292" stroke="#FFFFFF" stroke-width="18" stroke-linecap="round"/>
  <path d="M222 266L256 300L290 266" stroke="#FFFFFF" stroke-width="18" stroke-linecap="round" stroke-linejoin="round"/>
  <path d="M208 318V338C208 347.941 216.059 356 226 356H286C295.941 356 304 347.941 304 338V318" stroke="#FFFFFF" stroke-width="14" stroke-linecap="round"/>

  <circle cx="360" cy="354" r="38" fill="#0C66D9" stroke="#A5D7FF" stroke-width="4"/>
  <circle cx="346" cy="370" r="9" fill="#FFFFFF"/>
  <circle cx="368" cy="362" r="9" fill="#FFFFFF"/>
  <rect x="355" y="332" width="8" height="36" rx="4" fill="#FFFFFF"/>
  <rect x="376" y="326" width="8" height="32" rx="4" fill="#FFFFFF"/>
  <path d="M359 334L380 327V339L359 346V334Z" fill="#FFFFFF"/>
</svg>
